<svg width="24" height="24" viewBox="0 0 24 24" fill="none" xmlns="http://www.w3.org/2000/svg">
<path d="M1.30222 14.9673C0.765361 14.4303 0.405321 13.8103 0.222106 13.1071C0.0431522 12.3996 0.043152 11.6922 0.222106 10.9848C0.405321 10.2731 0.763225 9.65088 1.29583 9.11817C1.83695 8.57694 2.46116 8.21683 3.16846 8.03784C3.87575 7.85885 4.58305 7.85885 5.29034 8.03784C5.99764 8.21683 6.61972 8.57481 7.15658 9.11178L8.48595 10.4414L10.4544 8.47253L9.12506 7.14289C8.5882 6.60592 8.22816 5.98584 8.04494 5.28267C7.86599 4.57524 7.86387 3.86993 8.03857 3.16676C8.21752 2.45932 8.57756 1.83499 9.11868 1.29376C9.65555 0.756788 10.2776 0.398813 10.9849 0.219824C11.6922 0.0408344 12.3974 0.0429594 13.1004 0.226211C13.8077 0.4052 14.4298 0.763186 14.9667 1.30016C15.5035 1.83712 15.8614 2.45932 16.0404 3.16676C16.2236 3.86993 16.2257 4.57524 16.0467 5.28267C15.8721 5.99437 15.5163 6.6187 14.9794 7.15567L13.6564 8.47892L15.6186 10.4414L16.9415 9.11817C17.4784 8.5812 18.0983 8.22109 18.8014 8.03784C19.5087 7.85885 20.2138 7.86097 20.9169 8.04422C21.6242 8.22321 22.2484 8.58334 22.7895 9.12457C23.3263 9.66154 23.6843 10.2837 23.8632 10.9912C24.0464 11.6943 24.0464 12.3975 23.8632 13.1007C23.6843 13.8081 23.3263 14.4303 22.7895 14.9673C22.2484 15.5085 21.6242 15.8686 20.9169 16.0476C20.2138 16.2224 19.5087 16.2202 18.8014 16.0412C18.1026 15.8622 17.4848 15.5043 16.9479 14.9673L15.6249 13.644L13.6564 15.6129L14.9794 16.9362C15.5163 17.4732 15.8721 18.0932 16.0467 18.7964C16.2257 19.5038 16.2257 20.2113 16.0467 20.9187C15.8678 21.6261 15.5078 22.2505 14.9667 22.7917C14.4341 23.3244 13.812 23.6824 13.1004 23.8656C12.3931 24.0446 11.6858 24.0446 10.9785 23.8656C10.2797 23.6867 9.66192 23.3287 9.12506 22.7917C8.58393 22.2505 8.22178 21.6283 8.03857 20.9251C7.85961 20.2177 7.85961 19.5102 8.03857 18.8028C8.22604 18.0954 8.58608 17.4753 9.11868 16.9426L10.4544 15.6065L8.49235 13.644L7.15658 14.9801C6.62398 15.5128 5.99976 15.8686 5.28395 16.0476C4.57665 16.2266 3.86937 16.2266 3.16207 16.0476C2.45904 15.8644 1.83909 15.5043 1.30222 14.9673ZM2.90002 13.3692C3.14289 13.6121 3.4241 13.774 3.74366 13.855C4.06749 13.9402 4.38918 13.9424 4.70874 13.8614C5.0283 13.7804 5.30952 13.6185 5.55238 13.3756L6.88814 12.0395L5.55877 10.7099C5.3159 10.467 5.03256 10.3072 4.70874 10.2305C4.38918 10.1495 4.06962 10.1495 3.75006 10.2305C3.4305 10.3114 3.14715 10.4755 2.90002 10.7227C2.65715 10.9656 2.49312 11.2447 2.4079 11.5601C2.32695 11.8797 2.32695 12.1994 2.4079 12.519C2.49312 12.8429 2.65716 13.1263 2.90002 13.3692ZM10.7229 5.54476L12.0522 6.8744L13.3752 5.55116C13.6224 5.30398 13.7843 5.02271 13.861 4.70735C13.9419 4.38773 13.9398 4.06597 13.8546 3.74208C13.7736 3.42246 13.6117 3.14119 13.3688 2.89827C13.126 2.65536 12.8448 2.49341 12.5252 2.41244C12.2056 2.33147 11.8861 2.33147 11.5665 2.41244C11.2512 2.48915 10.97 2.65109 10.7229 2.89827C10.48 3.14119 10.3138 3.42246 10.2244 3.74208C10.1434 4.06171 10.1434 4.38133 10.2244 4.70095C10.3138 5.02058 10.48 5.30185 10.7229 5.54476ZM16.8484 12.0459L18.1714 13.3692C18.4143 13.6121 18.6934 13.7762 19.0087 13.8614C19.3282 13.9424 20.02 13.9402 20.3353 13.855C20.6548 13.774 20.9382 13.61 21.1853 13.3628C21.4324 13.1156 21.5943 12.8343 21.671 12.519C21.7563 12.2036 21.7584 11.8861 21.6774 11.5665C21.5965 11.2469 21.4346 10.9656 21.1917 10.7227C20.9446 10.4755 20.6612 10.3114 20.3417 10.2305C20.0221 10.1495 19.3282 10.1495 19.0087 10.2305C18.6976 10.3114 18.4185 10.4755 18.1714 10.7227L16.8484 12.0459ZM10.7229 21.1936C10.9657 21.4365 11.247 21.5984 11.5665 21.6794C11.8861 21.7604 12.2035 21.7582 12.5188 21.673C12.8384 21.592 13.1196 21.4301 13.3624 21.1872C13.6096 20.94 13.7736 20.6566 13.8546 20.337C13.9398 20.0216 13.9419 19.7041 13.861 19.3845C13.7843 19.0606 13.6245 18.7772 13.3816 18.5343L12.0586 17.2111L10.7229 18.5471C10.48 18.79 10.316 19.0691 10.2307 19.3845C10.1498 19.7041 10.1498 20.0238 10.2307 20.3434C10.3117 20.663 10.4758 20.9464 10.7229 21.1936ZM10.0901 12.0459L12.0522 14.0084L14.0207 12.0395L12.0586 10.077L10.0901 12.0459Z" fill="#F1E1D4"/>
</svg>
